Coordinates
version=1
nRows=15
nColumns=26
inDegrees=yes

Units are S.I. units (second, meters, Newtons, ...)
If the header above contains a line with 'inDegrees', this indicates whether rotational values are in degrees (yes) or radians (no).

endheader
time	pelvis_tilt	pelvis_list	pelvis_rotation	pelvis_tx	pelvis_ty	pelvis_tz	hip_flexion_r	hip_adduction_r	hip_rotation_r	knee_angle_r	knee_angle_r_beta	hip_flexion_l	hip_adduction_l	hip_rotation_l	knee_angle_l	knee_angle_l_beta	lumbar_extension	lumbar_bending	lumbar_rotation	ankle_angle_r	subtalar_angle_r	mtp_angle_r	ankle_angle_l	subtalar_angle_l	mtp_angle_l
      3.38000000	     -3.76879063	      5.97825772	     -0.94845336	      1.06448881	      0.85724482	     -0.41203117	     21.93322349	    -10.52093218	     -4.26578076	     50.89590361	      0.88830109	      6.92081305	      9.63957231	      6.55928666	     15.70187423	      0.27404940	    -10.06292234	     -3.05005468	    -15.02492167	     -5.35012392	    -12.63125975	      0.00000000	      0.53711130	    -13.15440505	      0.00000000
      3.38666667	     -3.60953166	      5.90743881	      0.02686511	      1.07301839	      0.85847485	     -0.41235594	     22.27350911	    -10.47930243	     -4.73549349	     49.45821956	      0.86320877	      6.02674905	      9.50476852	      7.07836291	     15.65028000	      0.27314891	    -10.28873687	     -3.03689304	    -15.74118695	     -4.59248838	    -11.56107768	      0.00000000	      0.57480034	    -12.33437197	      0.00000000
      3.39333333	     -3.67008858	      6.09526898	      0.60181867	      1.08123339	      0.85908183	     -0.41227445	     23.06853189	    -10.48965472	     -4.48397229	     48.09630983	      0.83943896	      5.47586836	      9.61647846	      7.19816875	     15.70351138	      0.27407798	    -10.29608874	     -3.37572843	    -15.84833024	     -4.43589968	    -11.36812464	      0.00000000	      0.56579195	    -12.19083005	      0.00000000
      3.40000000	     -3.39373491	      5.86393616	      1.86555990	      1.09000062	      0.86024332	     -0.41291414	     22.97611668	    -10.45127510	     -5.32481547	     46.27104127	      0.80758202	      4.33428028	      9.29948141	      8.17065361	     15.47308183	      0.27005622	    -10.64234115	     -3.09635378	    -17.04423917	     -3.39520661	     -9.87432936	      0.00000000	      0.75965730	    -10.86336394	      0.00000000
      3.40666667	     -3.46073197	      5.94296893	      2.68954224	      1.09849252	      0.86061578	     -0.41310719	     23.50781805	    -10.53243397	     -5.42721463	     44.56643424	      0.77783101	      3.66140269	      9.29429552	      8.64489504	     15.32650016	      0.26749789	    -10.60954106	     -3.26597760	    -17.49006430	     -3.06811413	     -9.40005813	      0.00000000	      0.63436719	    -10.31850464	      0.00000000
      3.41333333	     -3.26445658	      5.94873301	      3.71386290	      1.10692831	      0.86110674	     -0.41346552	     23.58568635	    -10.64245674	     -5.79273406	     42.67297249	      0.74478387	      2.74650486	      9.19602277	      9.27301878	     15.31041992	      0.26721724	    -10.94059415	     -3.30669416	    -18.27046827	     -2.50696887	     -8.63835547	      0.00000000	      0.86188690	     -9.65617186	      0.00000000
      3.42000000	     -3.41422840	      6.22705528	      4.31689433	      1.11521079	      0.86082961	     -0.41346985	     24.25277374	    -10.88242692	     -5.50674150	     40.90571283	      0.71393937	      2.25821069	      9.40476679	      9.40006933	     15.35076117	      0.26792133	    -10.87238719	     -3.73729876	    -18.33764233	     -2.32087869	     -8.48230867	      0.00000000	      0.91408075	     -9.55454761	      0.00000000
      3.42666667	     -3.26200674	      6.15859994	      5.50402776	      1.12376251	      0.86102438	     -0.41403648	     24.16202787	    -11.03420826	     -6.06037896	     38.70045997	      0.67545045	      1.28445713	      9.21252093	     10.34200268	     15.14874348	      0.26439545	    -11.15351637	     -3.63554333	    -19.35982211	     -1.86235314	     -7.84898932	      0.00000000	      1.03544811	     -8.82517900	      0.00000000
      3.43333333	     -3.45244459	      6.47986016	      6.09949361	      1.13208060	      0.86033855	     -0.41398809	     24.75561742	    -11.35797232	     -5.70637739	     36.75075678	      0.64142171	      0.81367145	      9.47141656	     10.46990685	     15.19227271	      0.26515518	    -11.08013414	     -4.13584309	    -19.42232794	     -1.64515236	     -7.69173754	      0.00000000	      1.17110710	     -8.76955433	      0.00000000
      3.44000000	     -3.28392023	      6.42850552	      7.19580396	      1.14063092	      0.86017336	     -0.41445929	     24.53743763	    -11.49295196	     -6.05479426	     34.31993038	      0.59899578	     -0.19979946	      9.26655807	     11.36998822	     14.96908115	      0.26125975	    -11.40806815	     -4.04772157	    -20.36547516	     -1.27956341	     -7.22002309	      0.00000000	      1.43277406	     -8.20274218	      0.00000000
      3.44666667	     -3.53589356	      6.78138711	      7.79636666	      1.14888093	      0.85907502	     -0.41435363	     25.09919173	    -11.90113055	     -5.63890165	     32.20389677	      0.56206403	     -0.63231186	      9.55687346	     11.51792192	     14.99320018	      0.26168071	    -11.32803664	     -4.59540689	    -20.42570145	     -1.03984447	     -7.06074559	      0.00000000	      1.61157828	     -8.17581093	      0.00000000
      3.45333333	     -3.82137073	      7.11400288	      8.41942966	      1.15725655	      0.85780586	     -0.41441651	     25.59911074	    -12.34036489	     -5.23559329	     29.96748509	      0.52303128	     -1.07294334	      9.84000396	     11.73452952	     14.97177539	      0.26130678	    -11.19946142	     -5.07443294	    -20.58295508	     -0.78561156	     -6.88419208	      0.00000000	      1.81098370	     -8.13925418	      0.00000000
      3.46000000	     -3.65360064	      6.92394472	      9.54303882	      1.16578490	      0.85721475	     -0.41474898	     25.13219441	    -12.32166241	     -5.39034633	     27.13127475	      0.47353007	     -2.07428705	      9.42663147	     12.73831591	     14.76761828	      0.25774356	    -11.56580269	     -4.80432337	    -21.64415821	     -0.69489410	     -6.63826794	      0.00000000	      2.15531162	     -7.74196443	      0.00000000
      3.46666667	     -3.98831246	      7.20162210	     10.14473142	      1.17414984	      0.85563420	     -0.41455006	     25.54824218	    -12.67242981	     -4.71544014	     24.69162311	      0.43095012	     -2.50624720	      9.61708252	     13.08390763	     14.66381643	      0.25593188	    -11.43752519	     -5.28133927	    -21.87465780	     -0.46921206	     -6.39492817	      0.00000000	      2.42900739	     -7.68068463	      0.00000000
      3.47333333	     -4.01611354	      7.18541675	     10.96792160	      1.18264379	      0.85439301	     -0.41456995	     25.35442724	    -12.78050408	     -4.36208512	     21.89157320	      0.38208003	     -3.21123871	      9.40049896	     13.53920410	     14.61728594	      0.25511977	    -11.63051198	     -5.26225629	    -22.34878316	     -0.54385790	     -6.30742307	      0.00000000	      2.75453308	     -7.48598491	      0.00000000
